<svg xmlns="http://www.w3.org/2000/svg" width="137" height="72.314" viewBox="0 0 137 72.314">
  <g id="Group_1302" data-name="Group 1302" transform="translate(-208 -4005)">
    <g id="Group_1296" data-name="Group 1296" transform="translate(834 2178.17)" opacity="0.9">
      <g id="Group_645" data-name="Group 645" transform="translate(-38)">
        <g id="Group_48" data-name="Group 48" transform="translate(-588 1851.83)">
          <g id="Group_40" data-name="Group 40" transform="translate(0 5.949)">
            <path id="Path_29" data-name="Path 29" d="M288.719,392.859h.6v9.568h-.6a9.068,9.068,0,0,0-.913-2.879q-2.515,4.066-6.427,4.068a7.945,7.945,0,0,1-6.757-3.745Q272,396.123,272,389.962a23.652,23.652,0,0,1,1.21-7.623,11.162,11.162,0,0,1,3.375-5.306,7.44,7.44,0,0,1,4.752-1.732,6.44,6.44,0,0,1,3.873,1.26,8.85,8.85,0,0,1,2.6,2.79,13.3,13.3,0,0,0,.732-3.545h.619l.168,10.353h-.6q-.634-5.519-2.58-7.673a5.819,5.819,0,0,0-4.393-2.154q-3,0-4.76,3.485t-1.763,9.969q0,6.145,1.926,9.416t4.794,3.272a5.663,5.663,0,0,0,3.136-1.068,7.089,7.089,0,0,0,2.538-3.614A18.222,18.222,0,0,0,288.719,392.859Z" transform="translate(-272 -375.3)" fill="#fff"/>
          </g>
          <g id="Group_41" data-name="Group 41" transform="translate(20.191 6.064)">
            <path id="Path_30" data-name="Path 30" d="M1048.918,619.028a1.761,1.761,0,0,1-2.113-1.834q-.071-.894-.071-4.325V597.9h-.394a16.007,16.007,0,0,1-4.941,1.388V600.5h.483a3.339,3.339,0,0,1,1.407.21,1.635,1.635,0,0,1,.646,1.05,24.487,24.487,0,0,1,.241,4.613v6.5c0,2.393-.021,3.842-.063,4.338a2.529,2.529,0,0,1-.449,1.286,1.969,1.969,0,0,1-1.656.538h-.609v1.207h7.894V619.03h-.375Z" transform="translate(-1041.4 -592.174)" fill="#fff"/>
            <path id="Path_31" data-name="Path 31" d="M1068.7,383.951a2.141,2.141,0,1,0-2.4-2.126A2.275,2.275,0,0,0,1068.7,383.951Z" transform="translate(-1065.646 -379.7)" fill="#fff"/>
          </g>
          <g id="Group_42" data-name="Group 42" transform="translate(28.966 5.308)">
            <path id="Path_32" data-name="Path 32" d="M1385.155,358.786h-4.54v12.885a27.565,27.565,0,0,0,.184,4,3.127,3.127,0,0,0,.782,1.653,1.757,1.757,0,0,0,1.278.625q1.323,0,2.3-2.136l.588.493a5.3,5.3,0,0,1-1.682,2.59,3.64,3.64,0,0,1-2.252.871,3.054,3.054,0,0,1-2.325-1.107,5,5,0,0,1-1.249-2.59,36.6,36.6,0,0,1-.249-5.206V358.786H1375.8v-1.2a3.493,3.493,0,0,0,2.7-1.795,10.627,10.627,0,0,0,1.525-4.894h.588v6.689h4.54Z" transform="translate(-1375.8 -350.9)" fill="#fff"/>
          </g>
          <g id="Group_43" data-name="Group 43" transform="translate(40.557 11.864)">
            <path id="Path_33" data-name="Path 33" d="M1826.685,618.492l3.225-12.192a28.714,28.714,0,0,0,.7-2.973q0-1.338-1.884-1.393V600.7h4.889v1.233a1.977,1.977,0,0,0-1.664.95,17.675,17.675,0,0,0-1.307,3.844l-6.2,23.607a22.491,22.491,0,0,1-1.561,4.6c-.454.813-.95,1.22-1.493,1.22-.735,0-1.1-.527-1.1-1.58a3.7,3.7,0,0,1,1.766-3.081,5.587,5.587,0,0,0,1.383-1.233,6.323,6.323,0,0,0,.688-1.847l1.323-5.225-5.228-17.685a11.55,11.55,0,0,0-1.155-2.947,1.828,1.828,0,0,0-1.561-.617V600.7h6.382v1.233q-1.681.079-1.682,1.1a16.348,16.348,0,0,0,.661,2.627Z" transform="translate(-1817.5 -600.7)" fill="#fff"/>
          </g>
          <g id="Group_44" data-name="Group 44" transform="translate(59.092 11.919)">
            <path id="Path_34" data-name="Path 34" d="M2524.306,608.151h-.506l.076-5.351h14.507l.076,5.351h-.475a11.519,11.519,0,0,0-.7-3.175,2.261,2.261,0,0,0-.948-1.2,4.783,4.783,0,0,0-1.732-.22h-2.4v15.709c0,1.74.026,2.884.084,3.43a2.057,2.057,0,0,0,.446,1.215,1.838,1.838,0,0,0,1.367.394h.727v.756h-7.453V624.3h.771a1.486,1.486,0,0,0,1.8-1.485q.1-.764.1-3.553V603.553h-2.215a5.966,5.966,0,0,0-1.939.2,2.193,2.193,0,0,0-.932,1.239A12.173,12.173,0,0,0,2524.306,608.151Z" transform="translate(-2523.8 -602.8)" fill="#fff"/>
          </g>
          <g id="Group_45" data-name="Group 45" transform="translate(121.934 11.919)">
            <path id="Path_35" data-name="Path 35" d="M4919.022,608.151h-.522l.079-5.351h14.908l.079,5.351h-.488a11.3,11.3,0,0,0-.714-3.175,2.27,2.27,0,0,0-.974-1.2,5.029,5.029,0,0,0-1.779-.22h-2.469v15.709q0,2.61.084,3.43a2.042,2.042,0,0,0,.459,1.215,1.923,1.923,0,0,0,1.4.394h.748v.756h-7.657V624.3h.792a1.98,1.98,0,0,0,1.365-.362,1.874,1.874,0,0,0,.488-1.123,34.71,34.71,0,0,0,.107-3.553V603.553h-2.272a6.308,6.308,0,0,0-1.995.2,2.209,2.209,0,0,0-.958,1.239A11.7,11.7,0,0,0,4919.022,608.151Z" transform="translate(-4918.5 -602.8)" fill="#fff"/>
          </g>
          <g id="Group_46" data-name="Group 46" transform="translate(76.092 11.929)">
            <path id="Path_36" data-name="Path 36" d="M3187.313,625.582h-.5l-4.592-18.013-4.015,18.013h-.533l-3.637-17.013q-.488-2.318-.706-3.086a2.665,2.665,0,0,0-.567-1.128,1.73,1.73,0,0,0-1.163-.412v-.74h5.66v.74a2.075,2.075,0,0,0-1.312.428,1.37,1.37,0,0,0-.289.926,19.008,19.008,0,0,0,.467,2.721l2.689,12.727,3.937-17.545h.622l4.424,17.545,2.3-11.6a21.135,21.135,0,0,0,.457-3.078q0-2.126-1.567-2.126v-.74h4.115v.74a1.652,1.652,0,0,0-1.357.974,21.533,21.533,0,0,0-1.123,4.215Z" transform="translate(-3171.6 -603.2)" fill="#fff"/>
          </g>
          <g id="Group_47" data-name="Group 47" transform="translate(98.307)">
            <path id="Path_37" data-name="Path 37" d="M4103.473,397.626a2.028,2.028,0,1,0-2.273-2.013A2.156,2.156,0,0,0,4103.473,397.626Z" transform="translate(-4099.021 -387.171)" fill="#fff"/>
            <path id="Path_38" data-name="Path 38" d="M4046.778,627.473l3.267-1.937a19.321,19.321,0,0,1-8.835-19.931,2.367,2.367,0,0,0-1.95.249c-2.881,3.453-1.721,9.959-1.721,9.959C4039.083,624.182,4046.778,627.473,4046.778,627.473Z" transform="translate(-4036.805 -593.484)" fill="#fff"/>
            <path id="Path_39" data-name="Path 39" d="M4622.061,1492c-.255-.433-1.163-.627-1.625-.85-.648-.312-1.278-.653-1.921-.974-1.509-.75-3.023-1.488-4.555-2.2a24.577,24.577,0,0,0-3.53-1.477l-3.23,1.848q2.94,1.405,5.986,2.635c1.364.551,2.748,1.081,4.167,1.509a15.9,15.9,0,0,0,1.753.443C4619.806,1493.06,4622.787,1493.249,4622.061,1492Z" transform="translate(-4591.742 -1451.391)" fill="#fff"/>
            <path id="Path_40" data-name="Path 40" d="M4039.535,180.576a9.652,9.652,0,0,0,2.291-2.343c.929-1.493-.055-3.194-.866-4.548a44.033,44.033,0,0,0-2.737-3.952c-.578-.761-1.168-1.514-1.782-2.252-4.65-5.679-4.236-7.1-4.236-7.1-.362-2.425,8.266-7.232,8.266-7.232a26.226,26.226,0,0,0,3.236-2.178,1.794,1.794,0,0,0,.575-1.493c-.063-.609-.577-1.113-1.233-.73-1.608.939-3.212,1.95-4.8,2.889-9.35,5.54-10.384,7.3-10.384,7.3-1.585,1.344,5.65,10.925,5.65,10.925a25.417,25.417,0,0,1,3.057,4.613c.472.979,1.165,2.459.386,3.414-1.357,1.659-3.587,2.816-5.477,3.939-2.548,1.512-5.159,2.942-7.786,4.348-1.336.714-2.674,1.425-4.026,2.118-1.378.672-1.412,1.252-1.412,1.252-.672,2.425,2.325,1.281,2.325,1.281,2.272-.5,13.562-6.865,13.562-6.865A36.679,36.679,0,0,0,4039.535,180.576Z" transform="translate(-4018.16 -148.616)" fill="#fff"/>
          </g>
        </g>
      </g>
    </g>
    <text id="Product_by" data-name="Product by" transform="translate(239 4025)" fill="#fff" font-size="18" font-family="Oswald-Medium, Oswald" font-weight="500"><tspan x="0" y="0">Product by</tspan></text>
  </g>
</svg>
